<svg width="445" height="250" viewBox="0 0 445 250" fill="none" xmlns="http://www.w3.org/2000/svg">
<g clip-path="url(#clip0_935_3300)">
<rect width="445" height="300" fill="#D9D9D9"/>
<path d="M233.625 113.312H212.375C210.615 113.312 209.188 114.74 209.188 116.5V133.5C209.188 135.26 210.615 136.688 212.375 136.688H233.625C235.385 136.688 236.812 135.26 236.812 133.5V116.5C236.812 114.74 235.385 113.312 233.625 113.312Z" stroke="black" stroke-width="2.75" stroke-linejoin="round"/>
<path d="M228.312 121.812C229.486 121.812 230.438 120.861 230.438 119.688C230.438 118.514 229.486 117.562 228.312 117.562C227.139 117.562 226.188 118.514 226.188 119.688C226.188 120.861 227.139 121.812 228.312 121.812Z" stroke="black" stroke-width="2.75" stroke-miterlimit="10"/>
<path d="M226.188 130.298L220.167 124.289C219.784 123.906 219.269 123.684 218.728 123.668C218.186 123.652 217.659 123.843 217.254 124.203L209.188 131.375M220.875 136.687L229.066 128.497C229.44 128.121 229.941 127.9 230.471 127.875C231.001 127.851 231.521 128.025 231.928 128.364L236.812 132.437" stroke="black" stroke-width="2.75" stroke-linecap="round" stroke-linejoin="round"/>
</g>
<defs>
<clipPath id="clip0_935_3300">
<rect width="445" height="250" fill="white"/>
</clipPath>
</defs>
</svg>
