<svg width="85" height="135" viewBox="0 0 85 135" fill="none" xmlns="http://www.w3.org/2000/svg">
<g clip-path="url(#clip0_935_3517)">
<rect width="85" height="135" fill="#D9D9D9"/>
<path d="M53.625 56.3125H32.375C30.6146 56.3125 29.1875 57.7396 29.1875 59.5V76.5C29.1875 78.2604 30.6146 79.6875 32.375 79.6875H53.625C55.3854 79.6875 56.8125 78.2604 56.8125 76.5V59.5C56.8125 57.7396 55.3854 56.3125 53.625 56.3125Z" stroke="black" stroke-width="2.75" stroke-linejoin="round"/>
<path d="M48.3125 64.8125C49.4861 64.8125 50.4375 63.8611 50.4375 62.6875C50.4375 61.5139 49.4861 60.5625 48.3125 60.5625C47.1389 60.5625 46.1875 61.5139 46.1875 62.6875C46.1875 63.8611 47.1389 64.8125 48.3125 64.8125Z" stroke="black" stroke-width="2.75" stroke-miterlimit="10"/>
<path d="M46.1875 73.2983L40.1671 67.2892C39.784 66.9062 39.2691 66.684 38.7276 66.6679C38.1861 66.6519 37.659 66.8432 37.2539 67.2029L29.1875 74.3748M40.875 79.6873L49.0655 71.4967C49.4401 71.1214 49.9415 70.8997 50.4712 70.8751C51.0009 70.8505 51.5206 71.0249 51.9283 71.3639L56.8125 75.4373" stroke="black" stroke-width="2.75" stroke-linecap="round" stroke-linejoin="round"/>
</g>
<defs>
<clipPath id="clip0_935_3517">
<rect width="85" height="135" rx="8" fill="white"/>
</clipPath>
</defs>
</svg>
