<svg width="40" height="40" viewBox="0 0 40 40" fill="none" xmlns="http://www.w3.org/2000/svg">
<path d="M0 20C0 8.95431 8.95431 0 20 0C31.0457 0 40 8.95431 40 20C40 31.0457 31.0457 40 20 40C8.95431 40 0 31.0457 0 20Z" fill="#E6E4E0"/>
<ellipse cx="19.9983" cy="15.5554" rx="8.88889" ry="8.88889" fill="#666564"/>
<path fill-rule="evenodd" clip-rule="evenodd" d="M33.9418 34.0805C33.9982 34.1779 33.9805 34.3009 33.8996 34.3791C30.3009 37.8589 25.3997 40 19.9985 40C14.5978 40 9.69702 37.8593 6.09846 34.3802C6.01755 34.302 5.99987 34.179 6.05625 34.0816C8.59994 29.6872 13.8881 26.6665 19.9993 26.6665C26.1101 26.6665 31.3979 29.6867 33.9418 34.0805Z" fill="#666564"/>
</svg>
