<svg width="40" height="40" viewBox="0 0 40 40" fill="none" xmlns="http://www.w3.org/2000/svg">
<path d="M0 20C0 8.95431 8.95431 0 20 0C31.0457 0 40 8.95431 40 20C40 31.0457 31.0457 40 20 40C8.95431 40 0 31.0457 0 20Z" fill="#1A1919"/>
<ellipse cx="19.9983" cy="15.5555" rx="8.88889" ry="8.88889" fill="#EE71A9"/>
<path fill-rule="evenodd" clip-rule="evenodd" d="M33.9417 34.0806C33.9981 34.178 33.9804 34.3009 33.8995 34.3791C30.3008 37.8589 25.3997 40 19.9984 40C14.5977 40 9.69701 37.8593 6.09846 34.3802C6.01755 34.302 5.99987 34.1791 6.05625 34.0817C8.59996 29.6873 13.8881 26.6666 19.9993 26.6666C26.11 26.6666 31.3977 29.6867 33.9417 34.0806Z" fill="#EE71A9"/>
</svg>
