<svg width="30" height="30" viewBox="0 0 30 30" fill="none" xmlns="http://www.w3.org/2000/svg">
<path d="M24 19.9083L19.116 21.1262L14.537 20.18L9.8488 21.1262L5 19.9026V19.25C5 18.4941 5.30027 17.7692 5.83475 17.2347C6.36922 16.7003 7.09413 16.4 7.85 16.4H21.15C21.9059 16.4 22.6308 16.7003 23.1653 17.2347C23.6997 17.7692 24 18.4941 24 19.25V19.9083ZM24 21.8682V25.9H5V21.8625L9.80415 23.0737L14.5332 22.1199L19.1493 23.0737L24 21.8682ZM11.65 13.55H17.35V15.45H11.65V13.55ZM14.5 12.98C13.7441 12.98 13.0192 12.6797 12.4847 12.1453C11.9503 11.6108 11.65 10.8859 11.65 10.13C11.65 9.08025 12.6 7.37025 14.5 5C16.4 7.37025 17.35 9.08025 17.35 10.13C17.35 10.8859 17.0497 11.6108 16.5153 12.1453C15.9808 12.6797 15.2559 12.98 14.5 12.98Z" fill="#999895"/>
</svg>
