<svg width="20" height="20" viewBox="0 0 20 20" fill="none" xmlns="http://www.w3.org/2000/svg">
<path d="M2.5 8.21179C2.5 7.35847 3.19176 6.66671 4.04508 6.66671V6.66671C4.63032 6.66671 5.16533 6.33606 5.42705 5.81261L6.11111 4.44449C6.11378 4.43914 6.11512 4.43647 6.11637 4.43399C6.45523 3.76093 7.14364 3.33547 7.89719 3.33338C7.89996 3.33337 7.90295 3.33337 7.90893 3.33337H12.0911C12.0971 3.33337 12.1 3.33337 12.1028 3.33338C12.8564 3.33547 13.5448 3.76093 13.8836 4.43399C13.8849 4.43647 13.8862 4.43914 13.8889 4.44448L14.5729 5.8126C14.8347 6.33605 15.3697 6.66671 15.9549 6.66671V6.66671C16.8082 6.66671 17.5 7.35847 17.5 8.21179V12.381C17.5 13.5779 17.5 14.1764 17.3316 14.6575C17.0301 15.5193 16.3526 16.1968 15.4908 16.4984C15.0097 16.6667 14.4112 16.6667 13.2143 16.6667H6.78571C5.58876 16.6667 4.99028 16.6667 4.50916 16.4984C3.64742 16.1968 2.96989 15.5193 2.66835 14.6575C2.5 14.1764 2.5 13.5779 2.5 12.381V8.21179Z" stroke="#3394EE" stroke-width="2"/>
<path d="M12.3346 10.8333C12.3346 12.122 11.29 13.1667 10.0013 13.1667C8.71264 13.1667 7.66797 12.122 7.66797 10.8333C7.66797 9.54467 8.71264 8.5 10.0013 8.5C11.29 8.5 12.3346 9.54467 12.3346 10.8333Z" stroke="#3394EE" stroke-width="2"/>
</svg>
