<svg width="34" height="35" viewBox="0 0 34 35" fill="none" xmlns="http://www.w3.org/2000/svg">
<path d="M14.2383 26.374C14.2383 26.8251 14.1045 27.2661 13.8539 27.6413C13.6033 28.0164 13.247 28.3087 12.8302 28.4814C12.4134 28.654 11.9547 28.6992 11.5123 28.6112C11.0698 28.5232 10.6633 28.3059 10.3443 27.9869C10.0253 27.6679 9.80805 27.2615 9.72003 26.819C9.63201 26.3765 9.67719 25.9178 9.84984 25.501C10.0225 25.0842 10.3149 24.728 10.69 24.4773C11.0651 24.2267 11.5061 24.0929 11.9573 24.0929C12.5622 24.0929 13.1424 24.3332 13.5702 24.761C13.998 25.1888 14.2383 25.769 14.2383 26.374ZM23.8188 24.0929C23.3676 24.0929 22.9266 24.2267 22.5515 24.4773C22.1764 24.728 21.884 25.0842 21.7114 25.501C21.5387 25.9178 21.4935 26.3765 21.5816 26.819C21.6696 27.2615 21.8868 27.6679 22.2058 27.9869C22.5249 28.3059 22.9313 28.5232 23.3738 28.6112C23.8163 28.6992 24.2749 28.654 24.6917 28.4814C25.1085 28.3087 25.4648 28.0164 25.7154 27.6413C25.9661 27.2661 26.0999 26.8251 26.0999 26.374C26.0999 25.769 25.8595 25.1888 25.4318 24.761C25.004 24.3332 24.4238 24.0929 23.8188 24.0929ZM29.6891 10.3529L26.5766 20.4694C26.3779 21.1237 25.9735 21.6964 25.4235 22.1026C24.8735 22.5088 24.2071 22.7268 23.5234 22.7243H12.2914C11.5979 22.722 10.9237 22.4951 10.37 22.0775C9.81628 21.6599 9.41279 21.0741 9.21999 20.4078L5.32051 6.75681H4.20165C3.83866 6.75681 3.49054 6.61261 3.23387 6.35594C2.9772 6.09927 2.83301 5.75116 2.83301 5.38817C2.83301 5.02518 2.9772 4.67707 3.23387 4.4204C3.49054 4.16373 3.83866 4.01953 4.20165 4.01953H5.66381C6.15919 4.02106 6.64072 4.18318 7.03616 4.48156C7.43161 4.77994 7.71964 5.1985 7.85705 5.67444L8.6885 8.58166H28.3809C28.5951 8.58164 28.8063 8.6319 28.9976 8.72839C29.1888 8.82487 29.3547 8.9649 29.482 9.13719C29.6092 9.30949 29.6942 9.50924 29.7302 9.72039C29.7662 9.93154 29.7521 10.1482 29.6891 10.3529ZM26.5276 11.3189H9.46976L11.8523 19.6562C11.8796 19.7516 11.9372 19.8355 12.0165 19.8952C12.0957 19.9549 12.1922 19.9871 12.2914 19.987H23.5234C23.621 19.9872 23.7162 19.956 23.7948 19.8981C23.8734 19.8402 23.9314 19.7587 23.9602 19.6654L26.5276 11.3189Z" fill="#1A1919"/>
</svg>
