<svg width="34" height="35" viewBox="0 0 34 35" fill="none" xmlns="http://www.w3.org/2000/svg">
<path fill-rule="evenodd" clip-rule="evenodd" d="M17 4.75009C9.95837 4.75009 4.25 10.4585 4.25 17.5001C4.25 24.5417 9.95837 30.2501 17 30.2501H23.375C24.653 30.2501 25.2921 30.2501 25.8215 30.1339C27.7273 29.7158 29.2157 28.2274 29.6338 26.3216C29.75 25.7922 29.75 25.1531 29.75 23.8751V17.5001C29.75 10.4585 24.0416 4.75009 17 4.75009ZM11.0832 16.0833C11.0832 15.1629 11.8294 14.4167 12.7498 14.4167H21.2498C22.1703 14.4167 22.9165 15.1629 22.9165 16.0833C22.9165 17.0038 22.1703 17.75 21.2498 17.75H12.7498C11.8294 17.75 11.0832 17.0038 11.0832 16.0833ZM15.3333 21.7501C15.3333 20.8296 16.0794 20.0834 16.9999 20.0834H21.2499C22.1704 20.0834 22.9166 20.8296 22.9166 21.7501C22.9166 22.6705 22.1704 23.4167 21.2499 23.4167H16.9999C16.0794 23.4167 15.3333 22.6705 15.3333 21.7501Z" fill="#807F7D"/>
</svg>
