<svg width="26" height="27" viewBox="0 0 26 27" fill="none" xmlns="http://www.w3.org/2000/svg">
<path d="M7.33333 12.0833C7.33333 11.3009 7.9676 10.6667 8.75 10.6667H17.25C18.0324 10.6667 18.6667 11.3009 18.6667 12.0833C18.6667 12.8657 18.0324 13.5 17.25 13.5H8.75C7.9676 13.5 7.33333 12.8657 7.33333 12.0833Z" fill="#3394EE"/>
<path d="M13 16.3333C12.2176 16.3333 11.5833 16.9676 11.5833 17.75C11.5833 18.5324 12.2176 19.1667 13 19.1667H17.25C18.0324 19.1667 18.6667 18.5324 18.6667 17.75C18.6667 16.9676 18.0324 16.3333 17.25 16.3333H13Z" fill="#3394EE"/>
<path fill-rule="evenodd" clip-rule="evenodd" d="M0.25 13.5C0.25 6.45837 5.95837 0.75 13 0.75C20.0416 0.75 25.75 6.45837 25.75 13.5V20.7533C25.75 21.3179 25.75 21.8051 25.725 22.2091C25.6986 22.634 25.6406 23.0601 25.482 23.4852C25.0513 24.6402 24.1402 25.5513 22.9852 25.982C22.5601 26.1406 22.134 26.1986 21.7091 26.225C21.3051 26.25 20.8179 26.25 20.2533 26.25H13C5.95837 26.25 0.25 20.5416 0.25 13.5ZM13 3.58333C7.52318 3.58333 3.08333 8.02318 3.08333 13.5C3.08333 18.9768 7.52318 23.4167 13 23.4167H20.2121C20.8294 23.4167 21.2279 23.416 21.5335 23.3971C21.828 23.3788 21.9413 23.3474 21.9951 23.3273C22.3801 23.1838 22.6838 22.8801 22.8273 22.4951C22.8474 22.4413 22.8788 22.328 22.8971 22.0335C22.916 21.7279 22.9167 21.3294 22.9167 20.7121V13.5C22.9167 8.02318 18.4768 3.58333 13 3.58333Z" fill="#3394EE"/>
</svg>
