<svg width="30" height="29" viewBox="0 0 30 29" fill="none" xmlns="http://www.w3.org/2000/svg">
<path d="M16.4173 23C16.4173 23.7824 15.7831 24.4167 15.0007 24.4167C14.2182 24.4167 13.584 23.7824 13.584 23C13.584 22.2176 14.2182 21.5833 15.0007 21.5833C15.7831 21.5833 16.4173 22.2176 16.4173 23Z" fill="#1A1919"/>
<path d="M15.0007 6.00001C11.871 6.00001 9.33398 8.53706 9.33398 11.6667H12.1673C12.1673 10.1019 13.4358 8.83334 15.0007 8.83334H15.1343C16.6253 8.83334 17.834 10.0421 17.834 11.5331V12.2601C17.834 12.988 17.3682 13.6342 16.6777 13.8644C14.8301 14.4802 13.584 16.2092 13.584 18.1566V20.1667H16.4173V18.1566C16.4173 17.4287 16.8831 16.7825 17.5736 16.5523C19.4212 15.9365 20.6673 14.2075 20.6673 12.2601V11.5331C20.6673 8.47725 18.1901 6.00001 15.1343 6.00001H15.0007Z" fill="#1A1919"/>
<path fill-rule="evenodd" clip-rule="evenodd" d="M0.833984 14.5C0.833984 6.67598 7.17662 0.333344 15.0007 0.333344C22.8247 0.333344 29.1673 6.67598 29.1673 14.5C29.1673 22.324 22.8247 28.6667 15.0007 28.6667C7.17662 28.6667 0.833984 22.324 0.833984 14.5ZM15.0007 3.16668C8.74142 3.16668 3.66732 8.24078 3.66732 14.5C3.66732 20.7592 8.74142 25.8333 15.0007 25.8333C21.2599 25.8333 26.334 20.7592 26.334 14.5C26.334 8.24078 21.2599 3.16668 15.0007 3.16668Z" fill="#1A1919"/>
</svg>
