<svg width="30" height="30" viewBox="0 0 30 30" fill="none" xmlns="http://www.w3.org/2000/svg">
<path d="M24.5473 8.91545C24.4122 8.74052 24.2546 8.58359 24.0785 8.44858C23.7863 8.23319 23.4459 8.09011 23.0859 8.03137C22.9642 8.01303 22.8412 8.00377 22.718 8.00366C17.5721 7.99878 12.4262 7.99878 7.28008 8.00366C7.11428 8.00397 6.949 8.0219 6.78711 8.05716L6.76836 8.06139C6.74336 8.06716 6.71875 8.07294 6.69414 8.07948L6.65234 8.09141L6.59883 8.10681C6.57148 8.11527 6.54453 8.12451 6.51758 8.13375L6.50234 8.13914C6.43333 8.16479 6.36602 8.19289 6.30039 8.22343L6.2918 8.22727C6.2625 8.24151 6.23398 8.25576 6.20547 8.27115L6.18906 8.28C6.16367 8.29386 6.13867 8.30771 6.11367 8.32234L6.09219 8.33543C6.07005 8.34877 6.04818 8.36263 6.02656 8.37699L5.99961 8.3947C5.98086 8.4074 5.96289 8.4201 5.94492 8.43319L5.91055 8.45782L5.87422 8.48592C5.47078 8.80181 5.18537 9.2409 5.06289 9.73409L5.05703 9.7595C5.05273 9.77759 5.04883 9.79568 5.04492 9.81376C5.01505 9.96063 5.00001 10.1101 5 10.2598V20.5224C4.99997 20.7 5.02107 20.8769 5.06289 21.0497C5.14844 21.341 5.2582 21.6216 5.45352 21.8683C5.61236 22.0724 5.80191 22.2514 6.01563 22.3991C6.2824 22.5757 6.58404 22.6948 6.90078 22.7485C7.02673 22.7684 7.15408 22.7785 7.28164 22.7786C12.4277 22.7837 17.5736 22.7837 22.7191 22.7786C22.8861 22.7785 23.0526 22.7605 23.2156 22.7247L23.2281 22.722L23.3063 22.7031L23.352 22.69C23.368 22.6854 23.384 22.6812 23.3996 22.6762C23.7145 22.5781 24.0041 22.414 24.2484 22.1951L24.2699 22.1751L24.3188 22.1293C24.3398 22.1085 24.3605 22.0873 24.3809 22.0661L24.384 22.0627C24.7801 21.6448 25.0003 21.0942 25 20.5224V10.2598C25 10.0791 24.9779 9.89893 24.9344 9.72332C24.8496 9.43581 24.7387 9.15908 24.5473 8.91545ZM11.25 11.2836C11.6632 11.2822 12.0674 11.4018 12.4115 11.6272C12.7555 11.8526 13.0238 12.1736 13.1823 12.5496C13.3408 12.9255 13.3823 13.3394 13.3016 13.7387C13.2208 14.1379 13.0215 14.5045 12.7289 14.7919C12.4363 15.0793 12.0636 15.2745 11.6581 15.3528C11.2527 15.4311 10.8327 15.3888 10.4517 15.2315C10.0706 15.0741 9.74565 14.8087 9.51799 14.469C9.29032 14.1293 9.17026 13.7306 9.17305 13.3235C9.17715 12.7826 9.3975 12.2651 9.78631 11.8833C10.1751 11.5014 10.701 11.2859 11.25 11.2836ZM15 18.815C14.9969 19.2473 14.75 19.4974 14.3102 19.499C13.3727 19.5024 12.4352 19.499 11.5 19.499H8.26094C7.73242 19.499 7.51367 19.268 7.49648 18.7492C7.47539 18.1115 7.60508 17.5253 8.03125 17.0284C8.48984 16.4934 9.08203 16.2182 9.78906 16.2105C10.7583 16.2005 11.7275 16.2005 12.6965 16.2105C14.0031 16.2236 14.9937 17.2182 14.9988 18.5064C15 18.6099 15 18.7123 15 18.815ZM16.8723 11.8667C16.9895 11.7798 17.1508 11.7047 17.293 11.7035C18.8207 11.692 20.3488 11.6939 21.8766 11.6978C21.9624 11.6923 22.0484 11.7044 22.1293 11.7332C22.2101 11.762 22.2841 11.8069 22.3465 11.8652C22.4089 11.9235 22.4585 11.9938 22.4921 12.0718C22.5257 12.1498 22.5426 12.2338 22.5417 12.3185C22.5408 12.4032 22.5222 12.4868 22.4871 12.5642C22.4519 12.6415 22.4009 12.7108 22.3373 12.7678C22.2737 12.8248 22.1989 12.8683 22.1174 12.8955C22.036 12.9227 21.9497 12.9331 21.8641 12.9259C21.1035 12.9306 20.3406 12.9259 19.582 12.9259C18.8234 12.9259 18.0605 12.9282 17.3 12.9259C17.1723 12.9278 17.0472 12.8908 16.9416 12.82C16.8361 12.7492 16.7552 12.648 16.7102 12.5303C16.6191 12.2978 16.6703 12.0165 16.8723 11.8667ZM22.1906 19.4051C22.0823 19.462 21.9619 19.4932 21.8391 19.4959C20.3375 19.5021 18.8358 19.503 17.334 19.4986C16.9863 19.4986 16.7215 19.2815 16.6785 18.984C16.6336 18.6761 16.7957 18.394 17.0895 18.3035C17.1897 18.2773 17.2933 18.2659 17.3969 18.2697C18.125 18.267 18.8531 18.2697 19.5813 18.2697C20.348 18.2697 21.1152 18.2662 21.8824 18.2716C22.0204 18.2706 22.1546 18.3157 22.2631 18.3996C22.3717 18.4835 22.4482 18.6012 22.4801 18.7334C22.5148 18.8612 22.5051 18.9966 22.4527 19.1183C22.4002 19.24 22.308 19.341 22.1906 19.4051ZM22.4609 15.811C22.3664 16.0604 22.1414 16.2071 21.8336 16.2082C21.0863 16.2105 20.3387 16.2082 19.591 16.2082C18.8305 16.2082 18.0695 16.2117 17.309 16.2063C16.9113 16.2036 16.6473 15.9172 16.6754 15.5381C16.6984 15.2221 16.9551 14.9904 17.307 14.9785C17.5215 14.9708 17.7367 14.9785 17.9504 14.9785C19.2395 14.9785 20.525 14.9766 21.8121 14.9785C22.3047 14.9797 22.6195 15.3884 22.4609 15.811Z" fill="#999895"/>
</svg>
