<svg width="31" height="38" viewBox="0 0 31 38" fill="none" xmlns="http://www.w3.org/2000/svg">
<path d="M8.70956 14.942L10.0686 17.9788C10.2936 18.4816 10.4061 18.7331 10.4061 19C10.4061 19.2669 10.2936 19.5184 10.0686 20.0212L8.70955 23.058C7.4376 25.9003 6.80162 27.3214 7.46732 27.9305C8.13303 28.5397 9.49225 27.7804 12.2107 26.2618L21.3029 21.1825C23.0321 20.2165 23.8967 19.7335 23.8967 19C23.8967 18.2665 23.0321 17.7835 21.3029 16.8175L12.2107 11.7382C9.49225 10.2196 8.13303 9.4603 7.46732 10.0695C6.80162 10.6786 7.4376 12.0997 8.70956 14.942Z" fill="#3394EE" stroke="#3394EE" stroke-width="1.5"/>
</svg>
