<svg width="22" height="24" viewBox="0 0 22 24" fill="#EA4891" xmlns="http://www.w3.org/2000/svg">
<path d="M20.2125 9.095C19.7237 8.915 17.0725 8.5875 15.3588 8.395C15.6275 6.82625 15.75 5.38875 15.75 3.875C15.75 2.15125 14.3475 0.75 12.625 0.75C10.9025 0.75 9.5 2.15125 9.5 3.875C9.5 6.21875 8.6675 7.2975 7.48 8.49875C7.13327 8.03523 6.68361 7.65857 6.16647 7.39849C5.64934 7.1384 5.07885 7.00199 4.5 7C2.4325 7 0.75 8.6825 0.75 10.75V18.25C0.75 20.3175 2.4325 22 4.5 22C5.44375 22 6.2975 21.6375 6.95625 21.06L7.19125 21.3013C8.39125 22.2213 11.775 23.25 14.5013 23.25C16.85 23.25 17.7612 22.8838 18.5675 22.5588L18.9625 22.405C20.005 22.0237 20.9325 20.8713 21.1325 19.655L21.965 12.1875C22.1812 10.8912 21.4112 9.53125 20.2125 9.095ZM4.5 19.5C3.81125 19.5 3.25 18.94 3.25 18.25V10.75C3.2644 10.4282 3.40238 10.1243 3.63523 9.90159C3.86807 9.67893 4.17783 9.55467 4.5 9.55467C4.82217 9.55467 5.13193 9.67893 5.36477 9.90159C5.59762 10.1243 5.7356 10.4282 5.75 10.75V18.25C5.75 18.94 5.18875 19.5 4.5 19.5ZM18.6587 19.3125C18.6125 19.5925 18.2938 19.9887 18.105 20.0575L17.635 20.24C16.9537 20.5137 16.365 20.75 14.5 20.75C12.1075 20.75 9.3525 19.8088 8.71 19.3175C8.5125 19.1675 8.25 18.6125 8.25 18.25V12.025C8.25375 11.9663 8.31375 11.205 9.13375 10.385C10.275 9.2425 12 7.5175 12 3.875C12 3.53125 12.2812 3.25 12.625 3.25C12.9688 3.25 13.25 3.53125 13.25 3.875C13.25 5.63375 13.0675 7.2875 12.6512 9.24125L12.28 10.9862L13.9312 10.7513C14.685 10.8138 18.8475 11.31 19.3487 11.4387C19.4212 11.4762 19.5138 11.6675 19.4875 11.8425L18.6587 19.3125Z" fill="#666564"/>
</svg>
