<svg width="24" height="24" viewBox="0 0 24 24" fill="none" xmlns="http://www.w3.org/2000/svg">
<path d="M19.4993 2C18.5555 2 17.7018 2.36125 17.043 2.93875L16.808 2.69875C15.608 1.7775 12.2268 0.75 9.49926 0.75C7.15051 0.75 6.24051 1.11625 5.43426 1.44L5.03926 1.595C3.99676 1.97625 3.06676 3.13125 2.86676 4.345L2.03676 11.81C1.81926 13.1087 2.58801 14.4688 3.78676 14.9075C4.27926 15.0875 6.92676 15.4137 8.64051 15.6075C8.37976 17.1 8.24927 18.6124 8.25051 20.1275C8.25051 21.8513 9.65176 23.2525 11.3755 23.2525C13.0993 23.2525 14.5005 21.8513 14.5005 20.1275C14.5005 17.7838 15.3343 16.7063 16.5205 15.5038C16.8669 15.9676 17.3165 16.3445 17.8337 16.6047C18.3509 16.8648 18.9216 17.001 19.5005 17.0025C20.4944 17.0008 21.4472 16.6052 22.1499 15.9022C22.8526 15.1993 23.2479 14.2464 23.2493 13.2525V5.7525C23.2483 4.75801 22.8529 3.8045 22.15 3.10106C21.447 2.39762 20.4937 2.00165 19.4993 2ZM11.9993 20.125C11.9993 20.4688 11.718 20.75 11.3743 20.75C11.0305 20.75 10.7493 20.4688 10.7493 20.125C10.7493 17.8687 11.0693 16.0737 11.348 14.7587L11.7193 13.0112L10.068 13.2463C9.31176 13.1837 5.15051 12.6875 4.64926 12.5562C4.57676 12.5212 4.48426 12.3312 4.51426 12.155L5.34301 4.685C5.38926 4.40625 5.70676 4.01125 5.89676 3.9425L6.36801 3.76C7.04801 3.48625 7.63676 3.25 9.50051 3.25C11.893 3.25 14.648 4.19125 15.2918 4.6825C15.4868 4.8325 15.7493 5.3875 15.7493 5.75V11.9713C15.748 12.0037 15.6993 12.7825 14.8655 13.6163C13.7243 14.7575 11.9993 16.4825 11.9993 20.125ZM20.7493 13.25C20.7493 13.5815 20.6176 13.8995 20.3831 14.1339C20.1487 14.3683 19.8308 14.5 19.4993 14.5C19.1677 14.5 18.8498 14.3683 18.6154 14.1339C18.381 13.8995 18.2493 13.5815 18.2493 13.25V5.75C18.2493 5.41848 18.381 5.10054 18.6154 4.86612C18.8498 4.6317 19.1677 4.5 19.4993 4.5C19.8308 4.5 20.1487 4.6317 20.3831 4.86612C20.6176 5.10054 20.7493 5.41848 20.7493 5.75V13.25Z" fill="#666564"/>
</svg>
