<svg width="20" height="20" viewBox="0 0 20 20" fill="none" xmlns="http://www.w3.org/2000/svg">
<path d="M10 4.16663L10.7071 3.45952L10 2.75241L9.29289 3.45952L10 4.16663ZM9 14.1666C9 14.7189 9.44771 15.1666 10 15.1666C10.5523 15.1666 11 14.7189 11 14.1666L9 14.1666ZM15.7071 8.45952L10.7071 3.45952L9.29289 4.87373L14.2929 9.87373L15.7071 8.45952ZM9.29289 3.45952L4.29289 8.45952L5.70711 9.87373L10.7071 4.87373L9.29289 3.45952ZM9 4.16663L9 14.1666L11 14.1666L11 4.16663L9 4.16663Z" fill="#4D4C4B"/>
<path d="M4.16797 17.5L15.8346 17.5" stroke="#4D4C4B" stroke-width="2"/>
</svg>
