<svg width="30" height="37" viewBox="0 0 30 37" fill="none" xmlns="http://www.w3.org/2000/svg">
<path d="M15 6.875C12.0333 6.875 9.13319 7.75474 6.66645 9.40296C4.19972 11.0512 2.27713 13.3939 1.14181 16.1348C0.00649929 18.8756 -0.290551 21.8916 0.288228 24.8014C0.867006 27.7111 2.29562 30.3838 4.3934 32.4816C6.49119 34.5794 9.16394 36.008 12.0737 36.5868C14.9834 37.1656 17.9994 36.8685 20.7403 35.7332C23.4811 34.5979 25.8238 32.6753 27.472 30.2086C29.1203 27.7418 30 24.8417 30 21.875C29.9955 17.8982 28.4136 14.0855 25.6016 11.2734C22.7895 8.46136 18.9769 6.87955 15 6.875ZM15 33.125C12.775 33.125 10.5999 32.4652 8.74984 31.229C6.89979 29.9929 5.45785 28.2359 4.60636 26.1802C3.75488 24.1245 3.53209 21.8625 3.96617 19.6802C4.40026 17.4979 5.47171 15.4934 7.04506 13.92C8.6184 12.3467 10.623 11.2753 12.8052 10.8412C14.9875 10.4071 17.2495 10.6299 19.3052 11.4814C21.3609 12.3328 23.1179 13.7748 24.354 15.6248C25.5902 17.4749 26.25 19.65 26.25 21.875C26.2467 24.8577 25.0604 27.7172 22.9513 29.8263C20.8422 31.9354 17.9827 33.1217 15 33.125ZM20.7016 15.5484C20.8764 15.7226 21.0151 15.9296 21.1097 16.1575C21.2043 16.3854 21.253 16.6298 21.253 16.8766C21.253 17.1233 21.2043 17.3677 21.1097 17.5956C21.0151 17.8235 20.8764 18.0305 20.7016 18.2047L16.3266 22.5797C15.9743 22.9319 15.4966 23.1298 14.9984 23.1298C14.5003 23.1298 14.0226 22.9319 13.6703 22.5797C13.3181 22.2274 13.1202 21.7497 13.1202 21.2516C13.1202 20.7534 13.3181 20.2757 13.6703 19.9234L18.0453 15.5484C18.2195 15.3736 18.4265 15.2349 18.6544 15.1403C18.8823 15.0457 19.1267 14.997 19.3734 14.997C19.6202 14.997 19.8646 15.0457 20.0925 15.1403C20.3204 15.2349 20.5274 15.3736 20.7016 15.5484ZM9.37501 2.5C9.37501 2.00272 9.57255 1.52581 9.92418 1.17417C10.2758 0.822544 10.7527 0.625 11.25 0.625H18.75C19.2473 0.625 19.7242 0.822544 20.0758 1.17417C20.4275 1.52581 20.625 2.00272 20.625 2.5C20.625 2.99728 20.4275 3.47419 20.0758 3.82583C19.7242 4.17746 19.2473 4.375 18.75 4.375H11.25C10.7527 4.375 10.2758 4.17746 9.92418 3.82583C9.57255 3.47419 9.37501 2.99728 9.37501 2.5Z" fill="#666564"/>
</svg>
