<svg width="28" height="34" viewBox="0 0 28 34" fill="none" xmlns="http://www.w3.org/2000/svg">
<path d="M2.98281 5.76406C4.86875 2.53125 7.45 0.75 10.25 0.75H17.75C20.55 0.75 23.1312 2.53125 25.0172 5.76406C26.7797 8.78438 27.75 12.7812 27.75 17C27.75 21.2188 26.7797 25.2156 25.0172 28.2359C23.1312 31.4688 20.55 33.25 17.75 33.25H10.25C7.45 33.25 4.86875 31.4688 2.98281 28.2359C1.22031 25.2156 0.25 21.2188 0.25 17C0.25 12.7812 1.22031 8.78438 2.98281 5.76406ZM2.78281 15.75H7.78281C7.88047 13.1849 8.39119 10.6524 9.29531 8.25H4.51562C3.55938 10.3406 2.92813 12.9375 2.78281 15.75ZM6.00156 5.75H10.4906C11.0127 4.84425 11.6423 4.00484 12.3656 3.25H10.25C8.6875 3.25 7.21875 4.1875 6.00156 5.75ZM25.25 17C25.25 9.54688 21.8125 3.25 17.75 3.25C13.6875 3.25 10.25 9.54688 10.25 17C10.25 24.4531 13.6875 30.75 17.75 30.75C21.8125 30.75 25.25 24.4531 25.25 17ZM10.25 30.75H12.3609C11.6376 29.9952 11.008 29.1558 10.4859 28.25H5.99688C7.21875 29.8125 8.6875 30.75 10.25 30.75ZM4.51562 25.75H9.29375C8.38963 23.3476 7.8789 20.8151 7.78125 18.25H2.78125C2.92813 21.0625 3.55938 23.6594 4.51562 25.75Z" fill="#FF9E58"/>
</svg>
