<svg width="40" height="26" viewBox="0 0 40 26" fill="none" xmlns="http://www.w3.org/2000/svg">
<path d="M4.57143 0C3.35901 0 2.19625 0.481631 1.33894 1.33894C0.481631 2.19625 0 3.35901 0 4.57143V18.2857C0 19.4981 0.481631 20.6609 1.33894 21.5182C2.19625 22.3755 3.35901 22.8571 4.57143 22.8571H11.4286V18.2857H4.57143V4.57143H11.4286V0H4.57143ZM18.2857 0C17.0733 0 15.9105 0.481631 15.0532 1.33894C14.1959 2.19625 13.7143 3.35901 13.7143 4.57143V18.2857C13.7143 19.4981 14.1959 20.6609 15.0532 21.5182C15.9105 22.3755 17.0733 22.8571 18.2857 22.8571H22.8571C24.0696 22.8571 25.2323 22.3755 26.0896 21.5182C26.9469 20.6609 27.4286 19.4981 27.4286 18.2857V4.57143C27.4286 3.35901 26.9469 2.19625 26.0896 1.33894C25.2323 0.481631 24.0696 0 22.8571 0H18.2857ZM18.2857 4.57143H22.8571V18.2857H18.2857V4.57143ZM29.7143 8V11.4286H36.5714V14.8571H33.1429C32.2335 14.8571 31.3615 15.2184 30.7185 15.8613C30.0755 16.5043 29.7143 17.3764 29.7143 18.2857V25.1429H40V21.7143H33.1429V18.2857H36.5714C37.4807 18.2857 38.3528 17.9245 38.9958 17.2815C39.6388 16.6385 40 15.7665 40 14.8571V11.4286C40 10.5193 39.6388 9.64719 38.9958 9.0042C38.3528 8.36122 37.4807 8 36.5714 8H29.7143Z" fill="#3EAB32"/>
</svg>
