<svg width="32" height="34" viewBox="0 0 32 34" fill="none" xmlns="http://www.w3.org/2000/svg">
<path d="M23.4993 5.33329C22.0319 5.33212 20.5918 5.72961 19.3327 6.48329C18.4198 4.38793 16.8167 2.66852 14.7902 1.61138C12.7638 0.554236 10.4364 0.223154 8.19562 0.673267C5.95479 1.12338 3.93578 2.32752 2.47478 4.08518C1.01378 5.84284 0.198961 8.04794 0.166016 10.3333V17C0.168409 19.3614 1.00643 21.6458 2.53166 23.4487C4.05689 25.2515 6.17092 26.4564 8.49935 26.85V32C8.49935 32.442 8.67494 32.8659 8.9875 33.1785C9.30007 33.491 9.72399 33.6666 10.166 33.6666C10.608 33.6666 11.032 33.491 11.3445 33.1785C11.6571 32.8659 11.8327 32.442 11.8327 32V26.85C13.5306 26.5553 15.1253 25.8325 16.466 24.75C17.061 25.705 17.8433 26.5296 18.7657 27.1741C19.688 27.8186 20.7313 28.2696 21.8327 28.5V32C21.8327 32.442 22.0083 32.8659 22.3208 33.1785C22.6334 33.491 23.0573 33.6666 23.4993 33.6666C23.9414 33.6666 24.3653 33.491 24.6779 33.1785C24.9904 32.8659 25.166 32.442 25.166 32V28.5C27.0483 28.1157 28.74 27.093 29.9549 25.6048C31.1697 24.1166 31.8331 22.2544 31.8327 20.3333V13.6666C31.8327 11.4565 30.9547 9.33687 29.3919 7.77407C27.8291 6.21126 25.7095 5.33329 23.4993 5.33329ZM15.166 13.6666V20.3333C15.182 20.6515 15.2153 20.9687 15.266 21.2833C14.3747 22.3449 13.1746 23.1022 11.8327 23.45V18.6666C11.8327 18.2246 11.6571 17.8007 11.3445 17.4881C11.032 17.1755 10.608 17 10.166 17C9.72399 17 9.30007 17.1755 8.9875 17.4881C8.67494 17.8007 8.49935 18.2246 8.49935 18.6666V23.4333C7.07189 23.0647 5.80686 22.2334 4.90216 21.0694C3.99747 19.9053 3.50414 18.4742 3.49935 17V10.3333C3.495 9.01256 3.88304 7.72031 4.61424 6.62045C5.34544 5.5206 6.38685 4.66272 7.60636 4.15563C8.82586 3.64854 10.1685 3.51511 11.464 3.77225C12.7594 4.0294 13.9493 4.66553 14.8827 5.59996C15.7849 6.51435 16.3992 7.67329 16.6493 8.93329C15.6859 10.3239 15.1685 11.9749 15.166 13.6666ZM28.4993 20.3333C28.4964 21.3649 28.1746 22.3703 27.5778 23.2117C26.981 24.0532 26.1386 24.6894 25.166 25.0333V18.6666C25.166 18.2246 24.9904 17.8007 24.6779 17.4881C24.3653 17.1755 23.9414 17 23.4993 17C23.0573 17 22.6334 17.1755 22.3208 17.4881C22.0083 17.8007 21.8327 18.2246 21.8327 18.6666V25.0333C20.8601 24.6894 20.0177 24.0532 19.4209 23.2117C18.8241 22.3703 18.5022 21.3649 18.4993 20.3333V13.6666C18.4993 12.3405 19.0261 11.0688 19.9638 10.1311C20.9015 9.19341 22.1733 8.66662 23.4993 8.66662C24.8254 8.66662 26.0972 9.19341 27.0349 10.1311C27.9726 11.0688 28.4993 12.3405 28.4993 13.6666V20.3333Z" fill="#666564"/>
</svg>
