<svg width="30" height="30" viewBox="0 0 30 30" fill="none" xmlns="http://www.w3.org/2000/svg">
<path d="M4.99993 7.99999H24.5121V22.6341H4.99993V7.99999Z" fill="#012169"/>
<path d="M7.28652 7.99999L14.7255 13.5183L22.1341 7.99999H24.5121V9.89023L17.1951 15.3475L24.5121 20.7744V22.6341H22.0731L14.756 17.1768L7.46944 22.6341H4.99993V20.8049L12.2865 15.378L4.99993 9.95121V7.99999H7.28652Z" fill="white"/>
<path d="M17.9268 16.5671L24.5121 21.4146V22.6341L16.2499 16.5671H17.9268ZM12.317 17.1768L12.4999 18.2439L6.64627 22.6341H4.99993L12.317 17.1768ZM24.5121 7.99999V8.09145L16.9207 13.8232L16.9816 12.4817L22.9877 7.99999H24.5121ZM4.99993 7.99999L12.2865 13.3658H10.4572L4.99993 9.28048V7.99999Z" fill="#C8102E"/>
<path d="M12.3475 7.99999V22.6341H17.2255V7.99999H12.3475ZM4.99993 12.878V17.7561H24.5121V12.878H4.99993Z" fill="white"/>
<path d="M4.99993 13.8841V16.811H24.5121V13.8841H4.99993ZM13.3231 7.99999V22.6341H16.2499V7.99999H13.3231Z" fill="#C8102E"/>
</svg>
