<svg width="30" height="30" viewBox="0 0 30 30" fill="none" xmlns="http://www.w3.org/2000/svg">
<path fill-rule="evenodd" clip-rule="evenodd" d="M5 8H24.51V21.9357H5V8Z" fill="url(#paint0_linear_323_2066)"/>
<path fill-rule="evenodd" clip-rule="evenodd" d="M5 8H24.51V11.7162H5V8Z" fill="url(#paint1_linear_323_2066)"/>
<path fill-rule="evenodd" clip-rule="evenodd" d="M5 18.2195H24.51V21.9357H5V18.2195Z" fill="url(#paint2_linear_323_2066)"/>
<path fill-rule="evenodd" clip-rule="evenodd" d="M5 11.7162H24.51V18.2195H5V11.7162Z" fill="url(#paint3_linear_323_2066)"/>
<path fill-rule="evenodd" clip-rule="evenodd" d="M10.1098 14.5033H11.0388V14.9679H10.1098V14.5033Z" fill="#FFEDB1"/>
<path d="M9.56629 15.8593C9.58917 16.1338 9.83671 16.3614 10.1098 16.3614C10.3831 16.3614 10.6304 16.1328 10.6532 15.8593L10.7662 14.5033H9.4533L9.56629 15.8593ZM8.9868 14.499C8.96562 14.2449 9.16279 14.0388 9.41847 14.0388H10.8011C11.0606 14.0388 11.2544 14.2392 11.2327 14.499L11.1161 15.8979C11.0734 16.4104 10.6264 16.8259 10.1098 16.8259C9.59666 16.8259 9.14644 16.4147 9.10337 15.8979L8.9868 14.499Z" fill="#A41517"/>
<path fill-rule="evenodd" clip-rule="evenodd" d="M9.18071 14.9679H11.0388V15.4324H10.5743L10.1098 16.3614L9.64523 15.4324H9.18071V14.9679Z" fill="#A41517"/>
<path fill-rule="evenodd" clip-rule="evenodd" d="M7.78714 13.5743H8.71619V16.8259H7.78714V13.5743Z" fill="#A41517"/>
<path fill-rule="evenodd" clip-rule="evenodd" d="M11.5033 13.5743H12.4324V16.8259H11.5033V13.5743Z" fill="#A41517"/>
<path fill-rule="evenodd" clip-rule="evenodd" d="M9.18071 13.1098C9.18071 12.8532 9.37956 12.6452 9.64959 12.6452H10.5699C10.8289 12.6452 11.0388 12.8607 11.0388 13.1098V13.3398C11.0388 13.4693 10.9389 13.5743 10.811 13.5743H9.40855C9.28272 13.5743 9.18071 13.4749 9.18071 13.3398V13.1098Z" fill="#A41517"/>
<defs>
<linearGradient id="paint0_linear_323_2066" x1="209.855" y1="8" x2="209.855" y2="217.036" gradientUnits="userSpaceOnUse">
<stop stop-color="white"/>
<stop offset="1" stop-color="#F0F0F0"/>
</linearGradient>
<linearGradient id="paint1_linear_323_2066" x1="209.855" y1="8" x2="209.855" y2="63.7429" gradientUnits="userSpaceOnUse">
<stop stop-color="#DD172C"/>
<stop offset="1" stop-color="#C60B1F"/>
</linearGradient>
<linearGradient id="paint2_linear_323_2066" x1="209.855" y1="18.2195" x2="209.855" y2="73.9624" gradientUnits="userSpaceOnUse">
<stop stop-color="#DD172C"/>
<stop offset="1" stop-color="#C60B1F"/>
</linearGradient>
<linearGradient id="paint3_linear_323_2066" x1="209.855" y1="11.7162" x2="209.855" y2="109.266" gradientUnits="userSpaceOnUse">
<stop stop-color="#FFD133"/>
<stop offset="1" stop-color="#FFC500"/>
</linearGradient>
</defs>
</svg>
